<?xml version="1.0" encoding="UTF-8" standalone="no"?>
<!-- Created with Inkscape (http://www.inkscape.org/) -->

<svg
   xmlns:dc="http://purl.org/dc/elements/1.1/"
   xmlns:cc="http://creativecommons.org/ns#"
   xmlns:rdf="http://www.w3.org/1999/02/22-rdf-syntax-ns#"
   xmlns:svg="http://www.w3.org/2000/svg"
   xmlns="http://www.w3.org/2000/svg"
   xmlns:sodipodi="http://sodipodi.sourceforge.net/DTD/sodipodi-0.dtd"
   xmlns:inkscape="http://www.inkscape.org/namespaces/inkscape"
   version="1.1"
   id="svg4485"
   width="150"
   height="149.99989"
   viewBox="0 0 150 149.99989"
   sodipodi:docname="nav-icon.svg"
   inkscape:version="0.92.1 r15371"
   inkscape:export-filename="C:\Users\Daniel\OneDrive\Coding Programs\UNC Bootcamp\Projects\Project2\new-news\public\images\nav-iconv3.png"
   inkscape:export-xdpi="217.39101"
   inkscape:export-ydpi="217.39101">
  <metadata
     id="metadata4491">
    <rdf:RDF>
      <cc:Work
         rdf:about="">
        <dc:format>image/svg+xml</dc:format>
        <dc:type
           rdf:resource="http://purl.org/dc/dcmitype/StillImage" />
        <dc:title />
      </cc:Work>
    </rdf:RDF>
  </metadata>
  <defs
     id="defs4489" />
  <sodipodi:namedview
     pagecolor="#d2d2d2"
     bordercolor="#666666"
     borderopacity="1"
     objecttolerance="10"
     gridtolerance="10"
     guidetolerance="10"
     inkscape:pageopacity="0"
     inkscape:pageshadow="2"
     inkscape:window-width="3200"
     inkscape:window-height="1644"
     id="namedview4487"
     showgrid="false"
     inkscape:zoom="2.35"
     inkscape:cx="-158.68461"
     inkscape:cy="-55.290379"
     inkscape:window-x="-16"
     inkscape:window-y="-16"
     inkscape:window-maximized="1"
     inkscape:current-layer="svg4485"
     fit-margin-top="0"
     fit-margin-left="0"
     fit-margin-right="0"
     fit-margin-bottom="0"
     showguides="false"
     inkscape:guide-bbox="true">
    <sodipodi:guide
       position="60.933261,126.52879"
       orientation="0,1"
       id="guide4482"
       inkscape:locked="false" />
    <sodipodi:guide
       position="48.971175,58.516593"
       orientation="0,1"
       id="guide4484"
       inkscape:locked="false" />
    <sodipodi:guide
       position="25.541002,59.396355"
       orientation="1,0"
       id="guide5054"
       inkscape:locked="false" />
  </sodipodi:namedview>
  <path
     style="opacity:1;fill:#f7f7f7;fill-opacity:1;fill-rule:evenodd;stroke:none;stroke-width:5.99810982;stroke-linecap:round;stroke-linejoin:bevel;stroke-miterlimit:4;stroke-dasharray:none;stroke-dashoffset:0;stroke-opacity:1"
     d="M 74.999953,-5.1086405e-6 C 33.578652,1.489136e-5 4.9705563e-5,33.578594 0,74.999895 -5.5228511e-6,116.42124 33.578613,149.99988 74.999953,149.9999 116.42133,149.99993 150.00001,116.42128 150,74.999895 149.99995,33.578557 116.42129,-3.710864e-5 74.999953,-5.1086405e-6 Z"
     id="path4490"
     inkscape:connector-curvature="0"
     sodipodi:nodetypes="scscs" />
  <path
     style="opacity:1;fill:#333333;fill-opacity:1;fill-rule:evenodd;stroke:none;stroke-width:5.99810982;stroke-linecap:round;stroke-linejoin:bevel;stroke-miterlimit:4;stroke-dasharray:none;stroke-dashoffset:0;stroke-opacity:1"
     d="M 74.999954,9.0200331 C 38.56028,9.0200507 9.0200844,38.560229 9.0200405,74.999901 9.0200361,111.43961 38.560246,140.97984 74.999954,140.97986 111.4397,140.97988 140.97997,111.43964 140.97996,74.999901 140.97992,38.560194 111.43967,9.0200067 74.999954,9.0200331 Z"
     id="path4490-5"
     inkscape:connector-curvature="0"
     sodipodi:nodetypes="scscs" />
  <g
     aria-label="N"
     style="font-style:normal;font-variant:normal;font-weight:normal;font-stretch:normal;font-size:18.66666603px;line-height:125%;font-family:Montserrat;-inkscape-font-specification:Montserrat;letter-spacing:0px;word-spacing:0px;fill:#f7f7f7;fill-opacity:1;stroke:#333333;stroke-width:1px;stroke-linecap:butt;stroke-linejoin:miter;stroke-opacity:1"
     id="text4535">
    <path
       d="m 91.272201,24.143164 q 0,1.041667 -2.25,1.708333 -5,1.416667 -5,5.791667 v 29.958334 q 0,9.458334 0.25,15.250001 0.08333,2.208333 -1.041667,2.5 -1.875,0.458333 -3.166667,-1.958333 Q 77.980534,73.434832 63.730534,57.893165 51.813867,44.934831 40.6472,33.684831 q -0.375,-0.375 -0.75,-0.208333 -0.416667,0.208333 -0.416667,0.958333 v 34.166668 q 0,5.5 5.541667,6.541666 2.291666,0.458334 2.291666,1.625001 0,1.583333 -2.583333,1.458333 -9.916667,-0.416667 -15.416667,0 -1.791667,0.125 -1.791667,-1.458333 0,-0.875 1.791667,-1.25 3.208333,-0.750001 4.291667,-2.041667 1.083333,-1.291667 1.083333,-4.375 V 32.226498 q 0,-2.416667 -1,-3.708334 -0.958333,-1.166667 -3.708333,-2.416667 -2.041667,-0.958333 -1.958334,-1.958333 0.125,-1.125 1.875,-0.875 5.416667,0.75 9.375,0.333333 2.041667,-0.208333 3.666667,1.541667 l 34.916668,37.208334 q 0.708333,0.791667 0.958333,0.791667 0.333334,0 0.333334,-1.125 V 31.893164 q 0,-5.291667 -5.541667,-6.25 -1.958334,-0.333333 -1.958334,-1.166667 0,-1.75 1.791667,-1.541666 6.833334,0.75 15.250001,-0.166667 1.458333,-0.166667 1.875,-0.04167 0.708333,0.208334 0.708333,1.416667 z"
       style="font-style:normal;font-variant:normal;font-weight:normal;font-stretch:normal;font-size:85.33333588px;font-family:'High Tower Text';-inkscape-font-specification:'High Tower Text';fill:#f7f7f7;fill-opacity:1;stroke:#333333;stroke-opacity:1"
       id="path4491" />
  </g>
  <g
     aria-label="W"
     style="font-style:normal;font-variant:normal;font-weight:normal;font-stretch:normal;font-size:18.66666603px;line-height:125%;font-family:Montserrat;-inkscape-font-specification:Montserrat;letter-spacing:0px;word-spacing:0px;fill:#f7f7f7;fill-opacity:1;stroke:#333333;stroke-width:1px;stroke-linecap:butt;stroke-linejoin:miter;stroke-opacity:1"
     id="text4539">
    <path
       d="m 147.4674,73.897119 q 0,1.416666 -2.66666,2.208333 -2.875,0.875 -4.83334,5.75 -9.375,23.083338 -17.41666,44.166668 -0.66667,1.75 -3.08334,2.41667 -0.125,0.0833 -0.29166,0.0833 -1.16667,0 -1.66667,-2.5 -1.91667,-9.08333 -13.91667,-36.166668 -5.20833,13.083338 -13.83333,36.166668 -0.625,1.75 -2.958334,2.41667 -0.166666,0.0417 -0.333333,0.0833 -1.166667,0 -1.625,-2.5 -1.583333,-8.375 -18.291667,-45.625001 -1.708334,-3.833334 -5.875,-4.791667 -2.041667,-0.458333 -2.041667,-1.208333 0,-1.75 1.791667,-1.583334 6.458333,0.583334 16.125,-0.875 1.625,-0.25 2.041667,-0.04167 0.375,0.208333 0.5,1.25 0.208333,0.833333 -2.041667,1.958333 -2.666667,1.333333 -2.666667,3.041667 0,0.75 0.375,1.75 4.166667,11.041667 13.291667,35.125001 0.291667,0.79167 0.791667,0.79167 0.458333,0 0.75,-0.79167 L 101.13407,84.313786 q -0.66667,-1.375 -1.875,-3.916667 -1.5,-3.125 -5.291667,-4.875 -1.916666,-0.875 -1.791666,-1.708334 0.208333,-1.875 1.875,-1.625 7.375003,1.208334 16.541663,0.25 1.66667,-0.166666 2.04167,0.08333 0.41667,0.208333 0.41667,1.291666 0,1.041667 -2.125,1.708334 -4.08334,1.291666 -4.08334,2.708333 0,0.541667 0.41667,1.666667 l 13.41667,35.125001 q 0.29166,0.83333 0.83333,0.83333 0.45833,0 0.79167,-0.83333 l 12.45833,-33.250001 q 0.33333,-1 0.33333,-1.791667 0,-2.875 -4.95833,-4.541667 -1.875,-0.625 -1.79167,-1.875 0.0833,-0.916666 0.45834,-1.125 0.45833,-0.208333 2.29166,0 7.75,0.916667 14.58334,0.166667 1.79166,-0.166667 1.79166,1.291667 z"
       style="font-style:normal;font-variant:normal;font-weight:bold;font-stretch:normal;font-size:85.33333588px;font-family:'High Tower Text';-inkscape-font-specification:'High Tower Text Bold';fill:#f7f7f7;fill-opacity:1;stroke:#333333;stroke-opacity:1"
       id="path4494" />
  </g>
</svg>
